# xmcd
#
# Track frame offsets: 
#        150
#        17185
#        39542
#        53658
#        76866
#        91113
#        110813
#        133720
#        155852
#        169823
#        190068
#        205180
#
# Disc length: 2948 seconds
#
# Revision: 0
# Processed by: cddbd v1.5.2PL0 Copyright (c) Steve Scherf et al.
# Submitted via: ExactAudioCopyFreeDBPlugin 1.0
#
DISCID=9c0b820c
DTITLE=Revolutionaires - Have Love Will Travel
DYEAR=2010
DGENRE=Blues
TTITLE0=Jump For Joy
TTITLE1=Shake It Baby
TTITLE2=I'm Ready
TTITLE3=Let The Good Times Roll
TTITLE4=Have Love Will Travel
TTITLE5=The Very Thought Of You
TTITLE6=Down The Road Apiece
TTITLE7=Rock Everybody Rock
TTITLE8=It's Been A Long Time
TTITLE9=Honey Hush
TTITLE10=The Broomside Boogie
TTITLE11=Mess Of Blues
EXTD=
EXTT0=
EXTT1=
EXTT2=
EXTT3=
EXTT4=
EXTT5=
EXTT6=
EXTT7=
EXTT8=
EXTT9=
EXTT10=
EXTT11=
PLAYORDER=
